<svg xmlns="http://www.w3.org/2000/svg" width="1128" height="208"><style>line, path, circle,rect,polygon {
                          stroke: black;
                          stroke-width: 2;
                          stroke-opacity: 1;
                          fill-opacity: 1;
                          stroke-linecap: round;
                          stroke-linejoin: miter;
                        }

                    text {
                        /* This fix the spacing bug in svg text*/
                        white-space: pre;
                        fill: black;
                        }
                        rect.backdrop{
                            stroke: none;
                            fill: white;
                        }
                        .broken{
                            stroke-dasharray: 8;
                        }
                        .filled{
                            fill: black;
                        }
                        .bg_filled{
                            fill: white;
                        }
                        .nofill{
                            fill: white;
                        }

                        text {
                         font-family: monospace;
                         font-size: 14px;
                        }

                        .end_marked_arrow{
                            marker-end: url(#arrow);
                         }
                        .start_marked_arrow{
                            marker-start: url(#arrow);
                         }

                        .end_marked_diamond{
                            marker-end: url(#diamond);
                         }
                        .start_marked_diamond{
                            marker-start: url(#diamond);
                         }

                        .end_marked_circle{
                            marker-end: url(#circle);
                         }
                        .start_marked_circle{
                            marker-start: url(#circle);
                         }

                        .end_marked_open_circle{
                            marker-end: url(#open_circle);
                         }
                        .start_marked_open_circle{
                            marker-start: url(#open_circle);
                         }

                        .end_marked_big_open_circle{
                            marker-end: url(#big_open_circle);
                         }
                        .start_marked_big_open_circle{
                            marker-start: url(#big_open_circle);
                         }

                         
                        </style><defs><marker id="arrow" viewBox="-2 -2 8 8" refX="4" refY="2" markerWidth="7" markerHeight="7" orient="auto-start-reverse"><polygon points="0,0 0,4 4,2 0,0"></polygon></marker><marker id="diamond" viewBox="-2 -2 8 8" refX="4" refY="2" markerWidth="7" markerHeight="7" orient="auto-start-reverse"><polygon points="0,2 2,0 4,2 2,4 0,2"></polygon></marker><marker id="circle" viewBox="0 0 8 8" refX="4" refY="4" markerWidth="7" markerHeight="7" orient="auto-start-reverse"><circle cx="4" cy="4" r="2" class="filled"></circle></marker><marker id="open_circle" viewBox="0 0 8 8" refX="4" refY="4" markerWidth="7" markerHeight="7" orient="auto-start-reverse"><circle cx="4" cy="4" r="2" class="bg_filled"></circle></marker><marker id="big_open_circle" viewBox="0 0 8 8" refX="4" refY="4" markerWidth="7" markerHeight="7" orient="auto-start-reverse"><circle cx="4" cy="4" r="3" class="bg_filled"></circle></marker></defs><rect class="backdrop" x="0" y="0" width="1128" height="208"></rect><rect x="396" y="104" width="640" height="80" class="broken nofill" rx="0"></rect><path d="M 440,112 A 16,16 0,0,0 440,128" class="nofill"></path><text x="450" y="124" >Z</text><text x="530" y="124" >Z</text><text x="610" y="124" >Z</text><path d="M 720,112 A 16,16 0,0,0 720,128" class="nofill"></path><text x="930" y="124" >0</text><path d="M 944,112 A 16,16 0,0,1 944,128" class="nofill"></path><path d="M 952,112 A 16,16 0,0,1 952,128" class="nofill"></path><line x1="452" y1="128" x2="452" y2="144" class="solid"></line><line x1="532" y1="128" x2="532" y2="144" class="solid"></line><line x1="612" y1="128" x2="612" y2="144" class="solid"></line><line x1="732" y1="128" x2="732" y2="144" class="solid"></line><line x1="780" y1="128" x2="780" y2="144" class="solid"></line><line x1="828" y1="128" x2="828" y2="144" class="solid"></line><line x1="932" y1="128" x2="932" y2="144" class="solid"></line><text x="450" y="156" >0</text><text x="530" y="156" >0</text><text x="610" y="156" >0</text><text x="650" y="156" >Closure</text><path d="M 712,144 A 16,16 0,0,0 712,160" class="nofill"></path><text x="714" y="156" >[Grab,</text><text x="770" y="156" >Grab,</text><text x="818" y="156" >Grab,</text><text x="930" y="156" >0</text><text x="970" y="156" >Return]</text><path d="M 1024,144 A 16,16 0,0,1 1024,160" class="nofill"></path><text x="410" y="156" >Num</text><path d="M 440,144 A 16,16 0,0,0 440,160" class="nofill"></path><path d="M 464,144 A 16,16 0,0,1 464,160" class="nofill"></path><text x="474" y="156" >,</text><text x="490" y="156" >Num</text><path d="M 520,144 A 16,16 0,0,0 520,160" class="nofill"></path><path d="M 544,144 A 16,16 0,0,1 544,160" class="nofill"></path><text x="554" y="156" >,</text><text x="570" y="156" >Num</text><path d="M 600,144 A 16,16 0,0,0 600,160" class="nofill"></path><path d="M 624,144 A 16,16 0,0,1 624,160" class="nofill"></path><text x="634" y="156" >,</text><text x="866" y="156" >Access</text><path d="M 920,144 A 16,16 0,0,0 920,160" class="nofill"></path><path d="M 944,144 A 16,16 0,0,1 944,160" class="nofill"></path><text x="954" y="156" >,</text><text x="1098" y="124" >S</text><text x="266" y="156" >Succ,</text><line x1="240" y1="40" x2="264" y2="40" class="solid"></line><text x="226" y="156" >0</text><text x="2" y="156" >[PushRetAddr</text><path d="M 104,144 A 16,16 0,0,0 104,160" class="nofill"></path><text x="106" y="156" >[Grab,</text><text x="1042" y="156" >,</text><path d="M 1056,112 A 16,16 0,0,0 1056,128" class="nofill"></path><path d="M 1112,112 A 16,16 0,0,1 1112,128" class="nofill"></path><text x="162" y="156" >Access</text><path d="M 216,144 A 16,16 0,0,0 216,160" class="nofill"></path><path d="M 240,144 A 16,16 0,0,1 240,160" class="nofill"></path><text x="250" y="156" >,</text><text x="314" y="156" >Return]</text><path d="M 368,144 A 16,16 0,0,1 368,160" class="nofill"></path><text x="378" y="156" >,</text><text x="1058" y="156" >Apply]</text><g><line x1="276" y1="8" x2="1100" y2="8" class="solid"></line><line x1="276" y1="8" x2="276" y2="144" class="solid"></line><line x1="1100" y1="8" x2="1100" y2="112" class="solid"></line></g><g><line x1="288" y1="24" x2="1084" y2="24" class="solid"></line><line x1="1084" y1="24" x2="1084" y2="112" class="solid"></line></g><g><line x1="288" y1="40" x2="1068" y2="40" class="solid"></line><line x1="1068" y1="40" x2="1068" y2="112" class="solid"></line></g><g><text x="1066" y="124">位</text><text x="1074" y="124">.0</text></g><g><line x1="228" y1="24" x2="264" y2="24" class="solid"></line><line x1="228" y1="24" x2="228" y2="144" class="solid"></line></g><g><line x1="124" y1="40" x2="216" y2="40" class="solid"></line><line x1="124" y1="40" x2="124" y2="144" class="solid"></line></g><g><text x="730" y="124">位</text><text x="738" y="124">.</text></g><g><text x="778" y="124">位</text><text x="786" y="124">.</text></g><g><text x="826" y="124">位</text><text x="834" y="124">.</text></g></svg>