<svg xmlns="http://www.w3.org/2000/svg" width="1104" height="176"><style>line, path, circle,rect,polygon {
                          stroke: black;
                          stroke-width: 2;
                          stroke-opacity: 1;
                          fill-opacity: 1;
                          stroke-linecap: round;
                          stroke-linejoin: miter;
                        }

                    text {
                        /* This fix the spacing bug in svg text*/
                        white-space: pre;
                        fill: black;
                        }
                        rect.backdrop{
                            stroke: none;
                            fill: white;
                        }
                        .broken{
                            stroke-dasharray: 8;
                        }
                        .filled{
                            fill: black;
                        }
                        .bg_filled{
                            fill: white;
                        }
                        .nofill{
                            fill: white;
                        }

                        text {
                         font-family: monospace;
                         font-size: 14px;
                        }

                        .end_marked_arrow{
                            marker-end: url(#arrow);
                         }
                        .start_marked_arrow{
                            marker-start: url(#arrow);
                         }

                        .end_marked_diamond{
                            marker-end: url(#diamond);
                         }
                        .start_marked_diamond{
                            marker-start: url(#diamond);
                         }

                        .end_marked_circle{
                            marker-end: url(#circle);
                         }
                        .start_marked_circle{
                            marker-start: url(#circle);
                         }

                        .end_marked_open_circle{
                            marker-end: url(#open_circle);
                         }
                        .start_marked_open_circle{
                            marker-start: url(#open_circle);
                         }

                        .end_marked_big_open_circle{
                            marker-end: url(#big_open_circle);
                         }
                        .start_marked_big_open_circle{
                            marker-start: url(#big_open_circle);
                         }

                         
                        </style><defs><marker id="arrow" viewBox="-2 -2 8 8" refX="4" refY="2" markerWidth="7" markerHeight="7" orient="auto-start-reverse"><polygon points="0,0 0,4 4,2 0,0"></polygon></marker><marker id="diamond" viewBox="-2 -2 8 8" refX="4" refY="2" markerWidth="7" markerHeight="7" orient="auto-start-reverse"><polygon points="0,2 2,0 4,2 2,4 0,2"></polygon></marker><marker id="circle" viewBox="0 0 8 8" refX="4" refY="4" markerWidth="7" markerHeight="7" orient="auto-start-reverse"><circle cx="4" cy="4" r="2" class="filled"></circle></marker><marker id="open_circle" viewBox="0 0 8 8" refX="4" refY="4" markerWidth="7" markerHeight="7" orient="auto-start-reverse"><circle cx="4" cy="4" r="2" class="bg_filled"></circle></marker><marker id="big_open_circle" viewBox="0 0 8 8" refX="4" refY="4" markerWidth="7" markerHeight="7" orient="auto-start-reverse"><circle cx="4" cy="4" r="3" class="bg_filled"></circle></marker></defs><rect class="backdrop" x="0" y="0" width="1104" height="176"></rect><text x="1074" y="124" >S</text><text x="266" y="156" >Succ,</text><line x1="240" y1="40" x2="264" y2="40" class="solid"></line><text x="226" y="156" >0</text><text x="2" y="156" >[PushRetAddr</text><path d="M 104,144 A 16,16 0,0,0 104,160" class="nofill"></path><text x="106" y="156" >[Grab,</text><path d="M 424,112 A 16,16 0,0,0 424,128" class="nofill"></path><text x="434" y="124" >Z</text><text x="514" y="124" >Z</text><text x="594" y="124" >Z</text><path d="M 704,112 A 16,16 0,0,0 704,128" class="nofill"></path><text x="914" y="124" >0</text><path d="M 928,112 A 16,16 0,0,1 928,128" class="nofill"></path><path d="M 936,112 A 16,16 0,0,1 936,128" class="nofill"></path><line x1="436" y1="128" x2="436" y2="144" class="solid"></line><line x1="516" y1="128" x2="516" y2="144" class="solid"></line><line x1="596" y1="128" x2="596" y2="144" class="solid"></line><line x1="716" y1="128" x2="716" y2="144" class="solid"></line><line x1="764" y1="128" x2="764" y2="144" class="solid"></line><line x1="812" y1="128" x2="812" y2="144" class="solid"></line><line x1="916" y1="128" x2="916" y2="144" class="solid"></line><text x="394" y="156" >Num</text><path d="M 424,144 A 16,16 0,0,0 424,160" class="nofill"></path><text x="434" y="156" >0</text><text x="514" y="156" >0</text><text x="594" y="156" >0</text><text x="634" y="156" >Closure</text><path d="M 696,144 A 16,16 0,0,0 696,160" class="nofill"></path><text x="698" y="156" >[Grab,</text><text x="754" y="156" >Grab,</text><text x="802" y="156" >Grab,</text><text x="914" y="156" >0</text><text x="954" y="156" >Return]),</text><path d="M 1032,112 A 16,16 0,0,0 1032,128" class="nofill"></path><path d="M 1088,112 A 16,16 0,0,1 1088,128" class="nofill"></path><text x="162" y="156" >Access</text><path d="M 216,144 A 16,16 0,0,0 216,160" class="nofill"></path><path d="M 240,144 A 16,16 0,0,1 240,160" class="nofill"></path><text x="250" y="156" >,</text><text x="314" y="156" >Return]</text><path d="M 368,144 A 16,16 0,0,1 368,160" class="nofill"></path><text x="378" y="156" >,</text><path d="M 448,144 A 16,16 0,0,1 448,160" class="nofill"></path><text x="458" y="156" >,</text><text x="474" y="156" >Num</text><path d="M 504,144 A 16,16 0,0,0 504,160" class="nofill"></path><path d="M 528,144 A 16,16 0,0,1 528,160" class="nofill"></path><text x="538" y="156" >,</text><text x="554" y="156" >Num</text><path d="M 584,144 A 16,16 0,0,0 584,160" class="nofill"></path><path d="M 608,144 A 16,16 0,0,1 608,160" class="nofill"></path><text x="618" y="156" >,</text><text x="850" y="156" >Access</text><path d="M 904,144 A 16,16 0,0,0 904,160" class="nofill"></path><path d="M 928,144 A 16,16 0,0,1 928,160" class="nofill"></path><text x="938" y="156" >,</text><text x="1034" y="156" >Apply]</text><g><line x1="276" y1="8" x2="1076" y2="8" class="solid"></line><line x1="276" y1="8" x2="276" y2="144" class="solid"></line><line x1="1076" y1="8" x2="1076" y2="112" class="solid"></line></g><g><line x1="288" y1="24" x2="1060" y2="24" class="solid"></line><line x1="1060" y1="24" x2="1060" y2="112" class="solid"></line></g><g><line x1="288" y1="40" x2="1044" y2="40" class="solid"></line><line x1="1044" y1="40" x2="1044" y2="112" class="solid"></line></g><g><text x="1042" y="124">位</text><text x="1050" y="124">.0</text></g><g><line x1="228" y1="24" x2="264" y2="24" class="solid"></line><line x1="228" y1="24" x2="228" y2="144" class="solid"></line></g><g><line x1="124" y1="40" x2="216" y2="40" class="solid"></line><line x1="124" y1="40" x2="124" y2="144" class="solid"></line></g><g><line x1="396" y1="104" x2="1012" y2="104" class="broken"></line><line x1="396" y1="104" x2="396" y2="144" class="broken"></line><line x1="1012" y1="104" x2="1012" y2="144" class="broken"></line></g><g><text x="714" y="124">位</text><text x="722" y="124">.</text></g><g><text x="762" y="124">位</text><text x="770" y="124">.</text></g><g><text x="810" y="124">位</text><text x="818" y="124">.</text></g></svg>